<svg version="1.1" id="Layer_1" xmlns="http://www.w3.org/2000/svg" xmlns:xlink="http://www.w3.org/1999/xlink" x="0px" y="0px"
	 width="100%" viewBox="0 0 505 192" enable-background="new 0 0 505 192" xml:space="preserve">
<path fill="#010101" opacity="1.000000" stroke="none" 
	d="
M352.000000,193.000000 
	C234.666687,193.000000 117.833374,193.000000 1.000047,193.000000 
	C1.000031,129.000031 1.000031,65.000061 1.000016,1.000073 
	C169.333267,1.000049 337.666534,1.000049 505.999878,1.000024 
	C505.999908,64.999924 505.999908,128.999847 505.999939,192.999878 
	C454.833344,193.000000 403.666656,193.000000 352.000000,193.000000 
M451.719910,114.710701 
	C449.516785,121.127480 448.015717,127.907295 444.932709,133.869080 
	C441.085297,141.309082 437.896057,141.229050 431.750000,135.620041 
	C430.356506,134.348358 427.762268,133.277557 426.110779,133.687134 
	C424.070221,134.193192 422.436920,136.341309 420.627625,137.779907 
	C420.883240,138.273315 421.138824,138.766708 421.394440,139.260101 
	C425.651367,135.611954 428.438782,137.123077 431.474701,140.841721 
	C435.817932,146.161575 440.428589,145.702087 444.496704,139.943680 
	C449.988312,132.170380 453.135956,123.489067 454.616089,113.844475 
	C456.912354,113.475273 460.995544,113.490273 461.172882,112.665474 
	C461.724274,110.101036 460.794128,107.218040 460.528900,105.158524 
	C460.190094,106.122894 460.000824,108.378151 459.186462,108.632599 
	C457.325775,109.213936 455.159241,108.816269 452.764191,108.816269 
	C452.568756,110.092918 452.269836,112.045486 451.719910,114.710701 
M439.340149,112.702774 
	C440.030273,110.955200 440.720367,109.207619 441.272552,107.809311 
	C435.315979,107.809311 429.655975,108.673279 424.428589,107.540627 
	C420.113678,106.605682 416.195984,103.487350 412.318298,100.999763 
	C409.413635,99.136383 407.717255,99.781334 407.749969,102.990471 
	C407.798218,107.726135 407.636627,112.739830 409.096588,117.125015 
	C411.742981,125.073715 419.869202,127.466949 426.903320,123.757050 
	C423.152222,122.763260 418.229065,122.585434 414.761047,120.248352 
	C410.642578,117.472939 410.521088,112.166260 410.993225,106.503525 
	C418.767059,113.286133 427.193542,113.152939 435.873749,112.160637 
	C434.700073,114.799316 433.526398,117.438004 432.352753,120.076683 
	C432.918457,120.390129 433.484192,120.703575 434.049927,121.017021 
	C435.731903,118.462006 437.413849,115.906982 439.340149,112.702774 
M307.894165,104.284958 
	C307.894165,106.365906 307.894165,108.446846 307.894165,110.527794 
	C301.382263,101.442154 295.481598,92.281677 290.330048,82.717690 
	C287.645386,77.733612 284.426361,76.104774 279.050232,77.852051 
	C279.050232,94.182159 279.050232,110.574669 279.050232,126.999786 
	C281.709259,126.999786 284.105621,126.999786 287.053101,126.999786 
	C287.053101,116.148354 287.053101,105.648956 287.053101,95.149559 
	C293.575012,103.893211 299.357605,112.751205 304.321991,122.046219 
	C307.040344,127.135963 310.390015,128.448257 315.648499,126.846283 
	C315.648499,110.514816 315.648499,94.136192 315.648499,77.624504 
	C312.997742,77.624504 310.611908,77.624504 307.893707,77.624504 
	C307.893707,86.413414 307.893707,94.875565 307.894165,104.284958 
M402.976868,138.396378 
	C400.035675,130.985031 397.006378,123.607063 394.182373,116.151329 
	C392.090118,110.627419 390.173553,109.453018 384.355713,110.916962 
	C381.729126,111.577888 379.153992,112.443260 376.555511,113.215874 
	C376.219025,112.752876 375.882568,112.289871 375.546082,111.826874 
	C379.453796,107.400116 383.484283,103.072670 387.194550,98.486206 
	C388.310944,97.106216 389.110535,94.992493 389.070374,93.237442 
	C388.901611,85.870583 388.832062,78.587090 392.330078,71.795204 
	C395.820892,65.017311 402.996429,60.318863 409.441376,62.676910 
	C421.436981,67.065819 432.859161,67.342308 444.828857,62.798672 
	C449.662872,60.963711 453.992126,63.568367 455.282104,68.603310 
	C456.696594,74.124374 456.842804,79.968086 457.596832,85.663895 
	C457.681152,86.300987 458.124237,86.890579 458.857605,88.511269 
	C459.334808,84.014175 460.360077,80.637260 459.873810,77.494179 
	C459.101135,72.499298 458.083313,67.261101 455.778046,62.853413 
	C452.668610,56.908283 447.338531,56.202751 438.147308,60.259121 
	C431.406708,63.233955 425.306183,62.712433 419.046936,59.425877 
	C417.000885,58.351562 414.834564,57.488335 412.676605,56.648350 
	C403.286957,52.993412 396.323486,55.001667 390.431396,63.091145 
	C384.884003,70.707458 382.791412,79.542679 383.573883,88.608894 
	C384.148193,95.263153 383.570984,100.556084 377.586884,104.333351 
	C376.790741,104.835907 376.255981,105.811005 375.708771,106.639030 
	C373.666504,109.729218 372.328674,113.228149 375.018524,116.293449 
	C377.801727,119.465134 380.388977,116.031921 382.996033,115.082260 
	C383.150513,115.025993 383.298462,114.937462 383.431946,114.840004 
	C386.609039,112.520432 388.570709,113.266991 389.408112,117.133369 
	C389.652100,118.259712 390.019867,119.392715 390.532806,120.422028 
	C394.597473,128.578262 398.548218,136.798691 402.899933,144.800354 
	C404.371552,147.506271 406.911591,150.550552 410.514801,148.656326 
	C414.034149,146.806229 416.986847,143.878281 420.188293,141.423508 
	C419.904053,141.088379 419.619843,140.753265 419.335602,140.418152 
	C407.677063,145.831970 406.878204,145.767090 402.976868,138.396378 
M62.659702,82.925797 
	C54.102196,73.519653 43.116901,78.833450 33.134270,77.179794 
	C33.134270,94.340759 33.134270,110.624550 33.134270,126.956078 
	C35.729656,126.956078 38.135342,126.956078 40.856007,126.956078 
	C40.856007,119.994003 40.856007,113.363167 40.856007,106.831604 
	C46.283619,105.283348 50.074711,106.136818 52.018696,111.867805 
	C53.180519,115.292915 55.258244,118.408791 56.938515,121.656296 
	C60.340183,128.230820 60.344185,128.228745 68.243073,126.614044 
	C64.615402,119.510605 61.016457,112.463425 57.445198,105.470451 
	C66.828621,97.393082 68.073883,92.444946 62.659702,82.925797 
M233.847900,120.362167 
	C245.863281,107.670609 243.720200,89.110764 229.313202,80.663811 
	C221.299545,75.965317 212.611252,77.605446 203.808624,77.373215 
	C203.808624,94.164978 203.808624,110.549194 203.808624,127.201912 
	C214.326431,127.315193 224.802826,128.768692 233.847900,120.362167 
M143.395233,94.854996 
	C136.698242,105.449104 130.001251,116.043213 123.222954,126.765953 
	C129.536041,128.586411 133.451035,126.747444 136.039444,121.173378 
	C137.038574,119.021790 139.170151,116.233871 141.132904,115.922249 
	C145.931366,115.160416 150.932251,115.673645 156.249466,115.673645 
	C156.249466,119.860947 156.249466,123.435928 156.249466,126.953751 
	C159.072327,126.953751 161.455063,126.953751 163.780396,126.953751 
	C163.780396,110.327133 163.780396,94.070473 163.780396,77.829651 
	C157.831619,76.298279 153.367172,77.080589 150.638046,83.247665 
	C148.907135,87.159042 146.122559,90.604141 143.395233,94.854996 
M107.064850,99.407394 
	C104.103226,98.333763 100.857811,97.700188 98.277130,96.035858 
	C96.478134,94.875641 94.274261,92.011261 94.623314,90.432625 
	C95.076691,88.382210 97.723152,85.621689 99.713120,85.360970 
	C103.563477,84.856506 107.614883,85.886650 111.582962,86.280746 
	C111.703285,86.810982 111.823608,87.341217 111.943939,87.871452 
	C113.624146,86.163948 115.304352,84.456444 117.158279,82.572395 
	C110.851913,76.778610 104.136169,75.886238 96.756104,77.945732 
	C90.836464,79.597664 87.440430,83.418541 86.665161,89.539986 
	C85.897942,95.597908 88.526871,99.977867 93.765831,102.587204 
	C97.757622,104.575378 102.124275,105.796265 106.216339,107.602730 
	C109.086433,108.869751 112.537483,110.296432 111.686821,114.287270 
	C110.850838,118.209213 107.480537,119.905167 103.770920,119.860680 
	C101.229713,119.830208 97.762054,119.497620 96.351578,117.873344 
	C92.716034,113.686699 89.931114,116.188751 86.300095,117.700272 
	C89.861176,124.446907 95.167107,127.630386 102.169502,127.666359 
	C109.066635,127.701797 114.967979,125.236359 118.299927,118.786652 
	C122.189087,111.258362 118.164261,104.192863 107.064850,99.407394 
M272.553772,127.250237 
	C272.956451,124.787094 273.359131,122.323959 273.873566,119.176971 
	C267.269470,119.176971 261.553833,119.176971 256.047577,119.176971 
	C256.047577,114.515984 256.047577,110.446060 256.047577,105.922836 
	C260.650574,105.922836 264.887756,105.922836 269.107819,105.922836 
	C269.107819,103.179893 269.107819,100.918480 269.107819,98.238083 
	C264.585938,98.238083 260.329193,98.238083 255.892578,98.238083 
	C255.892578,93.723564 255.892578,89.628349 255.892578,85.055038 
	C261.662964,85.055038 267.400085,85.055038 273.074310,85.055038 
	C273.074310,82.191826 273.074310,79.822220 273.074310,77.532501 
	C264.529419,77.532501 256.407806,77.532501 248.054260,77.532501 
	C248.054260,94.166969 248.054260,110.573273 248.054260,127.341553 
	C256.089844,127.341553 263.900177,127.341553 272.553772,127.250237 
M340.214203,85.924911 
	C343.561829,85.521400 346.909454,85.117897 350.359924,84.701988 
	C350.359924,82.329468 350.359924,79.963821 350.359924,77.456085 
	C340.743591,77.456085 331.486969,77.456085 321.964783,77.456085 
	C321.964783,80.028282 321.964783,82.430023 321.964783,85.339531 
	C325.464233,85.339531 328.706299,85.339531 332.324219,85.339531 
	C332.324219,99.566765 332.324219,113.287842 332.324219,127.060715 
	C335.128448,127.060715 337.528381,127.060715 340.151947,127.060715 
	C340.151947,113.454414 340.151947,100.157967 340.214203,85.924911 
M172.156540,79.026718 
	C172.156540,94.964691 172.156540,110.902657 172.156540,127.085205 
	C180.807861,127.085205 189.209351,127.085205 197.535889,127.085205 
	C197.535889,124.424034 197.535889,122.026459 197.535889,119.208275 
	C191.617096,119.208275 186.035980,119.208275 179.948227,119.208275 
	C179.948227,105.077652 179.948227,91.378578 179.948227,76.956543 
	C177.003677,77.413422 174.659683,77.777122 172.156540,79.026718 
M80.571136,113.489975 
	C80.571136,101.585144 80.571136,89.680321 80.571136,77.541962 
	C77.783478,77.541962 75.518410,77.541962 73.070801,77.541962 
	C73.070801,94.138710 73.070801,110.645576 73.070801,127.063339 
	C75.633377,127.063339 77.906364,127.063339 80.570526,127.063339 
	C80.570526,122.703918 80.570526,118.593575 80.571136,113.489975 
z"/>
<path fill="#F4F4F4" opacity="1.000000" stroke="none" 
	d="
M307.893921,103.811340 
	C307.893707,94.875565 307.893707,86.413414 307.893707,77.624504 
	C310.611908,77.624504 312.997742,77.624504 315.648499,77.624504 
	C315.648499,94.136192 315.648499,110.514816 315.648499,126.846283 
	C310.390015,128.448257 307.040344,127.135963 304.321991,122.046219 
	C299.357605,112.751205 293.575012,103.893211 287.053101,95.149559 
	C287.053101,105.648956 287.053101,116.148354 287.053101,126.999786 
	C284.105621,126.999786 281.709259,126.999786 279.050232,126.999786 
	C279.050232,110.574669 279.050232,94.182159 279.050232,77.852051 
	C284.426361,76.104774 287.645386,77.733612 290.330048,82.717690 
	C295.481598,92.281677 301.382263,101.442154 307.894165,110.527794 
	C307.894165,108.446846 307.894165,106.365906 307.893921,103.811340 
z"/>
<path fill="#EBEBEB" opacity="1.000000" stroke="none" 
	d="
M403.122498,138.754730 
	C406.878204,145.767090 407.677063,145.831970 419.335602,140.418152 
	C419.619843,140.753265 419.904053,141.088379 420.188293,141.423508 
	C416.986847,143.878281 414.034149,146.806229 410.514801,148.656326 
	C406.911591,150.550552 404.371552,147.506271 402.899933,144.800354 
	C398.548218,136.798691 394.597473,128.578262 390.532806,120.422028 
	C390.019867,119.392715 389.652100,118.259712 389.408112,117.133369 
	C388.570709,113.266991 386.609039,112.520432 383.431946,114.840004 
	C383.298462,114.937462 383.150513,115.025993 382.996033,115.082260 
	C380.388977,116.031921 377.801727,119.465134 375.018524,116.293449 
	C372.328674,113.228149 373.666504,109.729218 375.708771,106.639030 
	C376.255981,105.811005 376.790741,104.835907 377.586884,104.333351 
	C383.570984,100.556084 384.148193,95.263153 383.573883,88.608894 
	C382.791412,79.542679 384.884003,70.707458 390.431396,63.091145 
	C396.323486,55.001667 403.286957,52.993412 412.676605,56.648350 
	C414.834564,57.488335 417.000885,58.351562 419.046936,59.425877 
	C425.306183,62.712433 431.406708,63.233955 438.147308,60.259121 
	C447.338531,56.202751 452.668610,56.908283 455.778046,62.853413 
	C458.083313,67.261101 459.101135,72.499298 459.873810,77.494179 
	C460.360077,80.637260 459.334808,84.014175 458.857605,88.511269 
	C458.124237,86.890579 457.681152,86.300987 457.596832,85.663895 
	C456.842804,79.968086 456.696594,74.124374 455.282104,68.603310 
	C453.992126,63.568367 449.662872,60.963711 444.828857,62.798672 
	C432.859161,67.342308 421.436981,67.065819 409.441376,62.676910 
	C402.996429,60.318863 395.820892,65.017311 392.330078,71.795204 
	C388.832062,78.587090 388.901611,85.870583 389.070374,93.237442 
	C389.110535,94.992493 388.310944,97.106216 387.194550,98.486206 
	C383.484283,103.072670 379.453796,107.400116 375.546082,111.826874 
	C375.882568,112.289871 376.219025,112.752876 376.555511,113.215874 
	C379.153992,112.443260 381.729126,111.577888 384.355713,110.916962 
	C390.173553,109.453018 392.090118,110.627419 394.182373,116.151329 
	C397.006378,123.607063 400.035675,130.985031 403.122498,138.754730 
z"/>
<path fill="#F6F6F6" opacity="1.000000" stroke="none" 
	d="
M62.886963,83.219673 
	C68.073883,92.444946 66.828621,97.393082 57.445198,105.470451 
	C61.016457,112.463425 64.615402,119.510605 68.243073,126.614044 
	C60.344185,128.228745 60.340183,128.230820 56.938515,121.656296 
	C55.258244,118.408791 53.180519,115.292915 52.018696,111.867805 
	C50.074711,106.136818 46.283619,105.283348 40.856007,106.831604 
	C40.856007,113.363167 40.856007,119.994003 40.856007,126.956078 
	C38.135342,126.956078 35.729656,126.956078 33.134270,126.956078 
	C33.134270,110.624550 33.134270,94.340759 33.134270,77.179794 
	C43.116901,78.833450 54.102196,73.519653 62.886963,83.219673 
M58.074387,91.569290 
	C57.532646,85.136444 52.295052,84.078979 40.978073,85.625687 
	C40.978073,89.871902 40.978073,94.106163 40.978073,98.735291 
	C44.222054,98.735291 47.172165,98.701309 50.121193,98.743256 
	C54.546707,98.806198 57.422901,96.987991 58.074387,91.569290 
z"/>
<path fill="#F8F8F8" opacity="1.000000" stroke="none" 
	d="
M233.591156,120.609497 
	C224.802826,128.768692 214.326431,127.315193 203.808624,127.201912 
	C203.808624,110.549194 203.808624,94.164978 203.808624,77.373215 
	C212.611252,77.605446 221.299545,75.965317 229.313202,80.663811 
	C243.720200,89.110764 245.863281,107.670609 233.591156,120.609497 
M211.219299,87.838264 
	C211.219299,98.401642 211.219299,108.965012 211.219299,119.633003 
	C213.553955,119.633003 215.221222,119.764687 216.861923,119.611649 
	C227.531326,118.616409 234.863708,110.508560 233.915054,100.830521 
	C232.917526,90.653908 224.343292,84.026337 213.485138,85.173950 
	C212.679535,85.259087 211.975800,86.308029 211.219299,87.838264 
z"/>
<path fill="#F5F5F5" opacity="1.000000" stroke="none" 
	d="
M143.602875,94.556671 
	C146.122559,90.604141 148.907135,87.159042 150.638046,83.247665 
	C153.367172,77.080589 157.831619,76.298279 163.780396,77.829651 
	C163.780396,94.070473 163.780396,110.327133 163.780396,126.953751 
	C161.455063,126.953751 159.072327,126.953751 156.249466,126.953751 
	C156.249466,123.435928 156.249466,119.860947 156.249466,115.673645 
	C150.932251,115.673645 145.931366,115.160416 141.132904,115.922249 
	C139.170151,116.233871 137.038574,119.021790 136.039444,121.173378 
	C133.451035,126.747444 129.536041,128.586411 123.222954,126.765953 
	C130.001251,116.043213 136.698242,105.449104 143.602875,94.556671 
M150.911179,97.416283 
	C148.860245,100.723518 146.809296,104.030754 144.579300,107.626740 
	C148.817429,107.626740 152.357330,107.626740 155.873657,107.626740 
	C155.873657,101.843292 155.873657,96.440826 155.873657,90.070969 
	C153.990341,92.823174 152.632477,94.807526 150.911179,97.416283 
z"/>
<path fill="#F6F6F6" opacity="1.000000" stroke="none" 
	d="
M107.404404,99.580154 
	C118.164261,104.192863 122.189087,111.258362 118.299927,118.786652 
	C114.967979,125.236359 109.066635,127.701797 102.169502,127.666359 
	C95.167107,127.630386 89.861176,124.446907 86.300095,117.700272 
	C89.931114,116.188751 92.716034,113.686699 96.351578,117.873344 
	C97.762054,119.497620 101.229713,119.830208 103.770920,119.860680 
	C107.480537,119.905167 110.850838,118.209213 111.686821,114.287270 
	C112.537483,110.296432 109.086433,108.869751 106.216339,107.602730 
	C102.124275,105.796265 97.757622,104.575378 93.765831,102.587204 
	C88.526871,99.977867 85.897942,95.597908 86.665161,89.539986 
	C87.440430,83.418541 90.836464,79.597664 96.756104,77.945732 
	C104.136169,75.886238 110.851913,76.778610 117.158279,82.572395 
	C115.304352,84.456444 113.624146,86.163948 111.943939,87.871452 
	C111.823608,87.341217 111.703285,86.810982 111.582962,86.280746 
	C107.614883,85.886650 103.563477,84.856506 99.713120,85.360970 
	C97.723152,85.621689 95.076691,88.382210 94.623314,90.432625 
	C94.274261,92.011261 96.478134,94.875641 98.277130,96.035858 
	C100.857811,97.700188 104.103226,98.333763 107.404404,99.580154 
z"/>
<path fill="#F4F4F4" opacity="1.000000" stroke="none" 
	d="
M272.132141,127.295898 
	C263.900177,127.341553 256.089844,127.341553 248.054260,127.341553 
	C248.054260,110.573273 248.054260,94.166969 248.054260,77.532501 
	C256.407806,77.532501 264.529419,77.532501 273.074310,77.532501 
	C273.074310,79.822220 273.074310,82.191826 273.074310,85.055038 
	C267.400085,85.055038 261.662964,85.055038 255.892578,85.055038 
	C255.892578,89.628349 255.892578,93.723564 255.892578,98.238083 
	C260.329193,98.238083 264.585938,98.238083 269.107819,98.238083 
	C269.107819,100.918480 269.107819,103.179893 269.107819,105.922836 
	C264.887756,105.922836 260.650574,105.922836 256.047577,105.922836 
	C256.047577,110.446060 256.047577,114.515984 256.047577,119.176971 
	C261.553833,119.176971 267.269470,119.176971 273.873566,119.176971 
	C273.359131,122.323959 272.956451,124.787094 272.132141,127.295898 
z"/>
<path fill="#F3F3F3" opacity="1.000000" stroke="none" 
	d="
M340.183075,86.393219 
	C340.151947,100.157967 340.151947,113.454414 340.151947,127.060715 
	C337.528381,127.060715 335.128448,127.060715 332.324219,127.060715 
	C332.324219,113.287842 332.324219,99.566765 332.324219,85.339531 
	C328.706299,85.339531 325.464233,85.339531 321.964783,85.339531 
	C321.964783,82.430023 321.964783,80.028282 321.964783,77.456085 
	C331.486969,77.456085 340.743591,77.456085 350.359924,77.456085 
	C350.359924,79.963821 350.359924,82.329468 350.359924,84.701988 
	C346.909454,85.117897 343.561829,85.521400 340.183075,86.393219 
z"/>
<path fill="#F1F1F1" opacity="1.000000" stroke="none" 
	d="
M172.236115,78.583771 
	C174.659683,77.777122 177.003677,77.413422 179.948227,76.956543 
	C179.948227,91.378578 179.948227,105.077652 179.948227,119.208275 
	C186.035980,119.208275 191.617096,119.208275 197.535889,119.208275 
	C197.535889,122.026459 197.535889,124.424034 197.535889,127.085205 
	C189.209351,127.085205 180.807861,127.085205 172.156540,127.085205 
	C172.156540,110.902657 172.156540,94.964691 172.236115,78.583771 
z"/>
<path fill="#EEEEEE" opacity="1.000000" stroke="none" 
	d="
M80.570831,113.986603 
	C80.570526,118.593575 80.570526,122.703918 80.570526,127.063339 
	C77.906364,127.063339 75.633377,127.063339 73.070801,127.063339 
	C73.070801,110.645576 73.070801,94.138710 73.070801,77.541962 
	C75.518410,77.541962 77.783478,77.541962 80.571136,77.541962 
	C80.571136,89.680321 80.571136,101.585144 80.570831,113.986603 
z"/>
<path fill="#EAEAEA" opacity="1.000000" stroke="none" 
	d="
M435.894836,111.359711 
	C427.193542,113.152939 418.767059,113.286133 410.993225,106.503525 
	C410.521088,112.166260 410.642578,117.472939 414.761047,120.248352 
	C418.229065,122.585434 423.152222,122.763260 426.903320,123.757050 
	C419.869202,127.466949 411.742981,125.073715 409.096588,117.125015 
	C407.636627,112.739830 407.798218,107.726135 407.749969,102.990471 
	C407.717255,99.781334 409.413635,99.136383 412.318298,100.999763 
	C416.195984,103.487350 420.113678,106.605682 424.428589,107.540627 
	C429.655975,108.673279 435.315979,107.809311 441.272552,107.809311 
	C440.720367,109.207619 440.030273,110.955200 438.895813,112.990356 
	C437.599274,112.638535 436.747070,111.999115 435.894836,111.359711 
z"/>
<path fill="#E3E3E3" opacity="1.000000" stroke="none" 
	d="
M453.868683,113.967628 
	C453.135956,123.489067 449.988312,132.170380 444.496704,139.943680 
	C440.428589,145.702087 435.817932,146.161575 431.474701,140.841721 
	C428.438782,137.123077 425.651367,135.611954 421.394440,139.260101 
	C421.138824,138.766708 420.883240,138.273315 420.627625,137.779907 
	C422.436920,136.341309 424.070221,134.193192 426.110779,133.687134 
	C427.762268,133.277557 430.356506,134.348358 431.750000,135.620041 
	C437.896057,141.229050 441.085297,141.309082 444.932709,133.869080 
	C448.015717,127.907295 449.516785,121.127480 452.161804,114.348770 
	C453.025360,113.980431 453.447021,113.974030 453.868683,113.967628 
z"/>
<path fill="#D9D9D9" opacity="1.000000" stroke="none" 
	d="
M454.242371,113.906052 
	C453.447021,113.974030 453.025360,113.980431 452.287292,113.992447 
	C452.269836,112.045486 452.568756,110.092918 452.764191,108.816269 
	C455.159241,108.816269 457.325775,109.213936 459.186462,108.632599 
	C460.000824,108.378151 460.190094,106.122894 460.528900,105.158524 
	C460.794128,107.218040 461.724274,110.101036 461.172882,112.665474 
	C460.995544,113.490273 456.912354,113.475273 454.242371,113.906052 
z"/>
<path fill="#0C0C0C" opacity="1.000000" stroke="none" 
	d="
M435.884277,111.760170 
	C436.747070,111.999115 437.599274,112.638535 438.773651,113.314957 
	C437.413849,115.906982 435.731903,118.462006 434.049927,121.017021 
	C433.484192,120.703575 432.918457,120.390129 432.352753,120.076683 
	C433.526398,117.438004 434.700073,114.799316 435.884277,111.760170 
z"/>
<path fill="#0B0B0B" opacity="1.000000" stroke="none" 
	d="
M58.074585,91.968750 
	C57.422901,96.987991 54.546707,98.806198 50.121193,98.743256 
	C47.172165,98.701309 44.222054,98.735291 40.978073,98.735291 
	C40.978073,94.106163 40.978073,89.871902 40.978073,85.625687 
	C52.295052,84.078979 57.532646,85.136444 58.074585,91.968750 
z"/>
<path fill="#090909" opacity="1.000000" stroke="none" 
	d="
M211.222000,87.373589 
	C211.975800,86.308029 212.679535,85.259087 213.485138,85.173950 
	C224.343292,84.026337 232.917526,90.653908 233.915054,100.830521 
	C234.863708,110.508560 227.531326,118.616409 216.861923,119.611649 
	C215.221222,119.764687 213.553955,119.633003 211.219299,119.633003 
	C211.219299,108.965012 211.219299,98.401642 211.222000,87.373589 
z"/>
<path fill="#0E0E0E" opacity="1.000000" stroke="none" 
	d="
M151.092896,97.104080 
	C152.632477,94.807526 153.990341,92.823174 155.873657,90.070969 
	C155.873657,96.440826 155.873657,101.843292 155.873657,107.626740 
	C152.357330,107.626740 148.817429,107.626740 144.579300,107.626740 
	C146.809296,104.030754 148.860245,100.723518 151.092896,97.104080 
z"/>
</svg>