<svg version="1.1" id="Layer_1" xmlns="http://www.w3.org/2000/svg" xmlns:xlink="http://www.w3.org/1999/xlink" x="0px" y="0px"
	 width="100%" viewBox="0 0 489 259" enable-background="new 0 0 489 259" xml:space="preserve">
<path fill="#010101" opacity="1.000000" stroke="none" 
	d="
M359.000000,260.000000 
	C239.373154,260.000000 120.246307,260.000000 1.059728,260.000000 
	C1.059728,173.735367 1.059728,87.470688 1.059728,1.103000 
	C163.876816,1.103000 326.753723,1.103000 489.815308,1.103000 
	C489.815308,87.333008 489.815308,173.666473 489.815308,260.000000 
	C446.470734,260.000000 402.985382,260.000000 359.000000,260.000000 
M257.661926,109.292465 
	C259.777924,107.264412 261.893951,105.236351 264.501099,102.720345 
	C266.569885,98.699669 268.638672,94.679001 270.707458,90.658333 
	C260.015198,94.984840 252.387497,94.981636 242.711594,89.757301 
	C239.366592,87.951218 236.346771,85.548050 233.146896,83.466087 
	C231.082199,82.122711 228.797775,81.429596 228.242935,84.737015 
	C226.926849,92.582359 226.983383,100.296989 231.335693,107.462509 
	C235.532272,114.371597 249.184402,117.152824 255.646317,110.255005 
	C256.134094,109.867058 256.621857,109.479111 257.661926,109.292465 
M255.442581,35.508564 
	C248.744324,33.193150 241.888657,31.248034 235.381744,28.482435 
	C223.198883,23.304430 212.464386,26.309271 205.591232,37.480408 
	C199.750320,46.973804 196.689972,57.421764 198.014725,68.437759 
	C198.984299,76.500145 197.761383,82.585838 191.081848,87.882454 
	C188.337250,90.058830 186.438919,94.465378 185.979736,98.088654 
	C185.288971,103.539062 189.006287,105.476181 194.009552,103.030426 
	C196.915680,101.609795 199.762558,100.067932 203.166824,98.305931 
	C203.975616,100.590706 204.548218,102.100388 205.046875,103.634109 
	C209.032135,115.891525 214.385254,127.475327 221.677017,138.151855 
	C226.516006,145.237045 230.742416,145.831757 237.162659,139.984970 
	C239.378265,137.967255 241.529739,135.873138 243.624893,133.730240 
	C250.538864,126.658691 251.682755,126.655777 258.058197,133.885849 
	C262.902466,139.379486 266.744080,139.616730 271.917847,134.459137 
	C273.654358,132.728058 275.431396,130.737213 276.328644,128.517029 
	C280.095276,119.196869 283.535553,109.744850 286.847107,100.996811 
	C289.495331,99.892601 294.270172,99.278938 294.913666,97.313004 
	C295.897552,94.307083 294.030548,90.368004 293.373779,86.825058 
	C292.990326,86.907082 292.606873,86.989105 292.223419,87.071129 
	C292.223419,90.050568 292.223419,93.030006 292.223419,97.047310 
	C289.132507,95.108543 286.991089,93.765358 284.578766,92.252220 
	C284.277435,93.815865 284.072205,94.935959 283.845001,96.051567 
	C281.720734,106.481377 280.025146,117.085648 273.926666,126.168076 
	C268.678223,133.984482 264.543243,134.285202 258.204254,127.661850 
	C253.773010,123.031807 251.120193,122.962387 246.452637,127.417625 
	C243.685883,130.058548 241.148636,132.973602 238.189560,135.372330 
	C231.836258,140.522537 225.822449,139.201340 222.554672,131.690094 
	C218.507141,122.386551 214.803986,112.924477 211.230347,103.426193 
	C208.262421,95.537872 204.983154,93.844017 196.845428,96.702774 
	C194.425339,97.552948 192.008698,98.412979 189.590485,99.268494 
	C189.245789,98.903206 188.901077,98.537918 188.556381,98.172623 
	C189.447922,96.384384 190.049759,94.358269 191.285782,92.852852 
	C194.874893,88.481422 198.593567,84.198578 202.516846,80.127121 
	C204.361694,78.212608 204.791168,76.420586 204.931595,73.743805 
	C205.354156,65.688797 205.776398,57.483463 207.684692,49.701126 
	C209.416992,42.636353 214.652603,36.851944 222.097580,35.975849 
	C227.917709,35.290958 234.281860,36.564934 239.998978,38.302273 
	C248.277191,40.817879 256.153595,41.791584 264.331879,38.308903 
	C267.212219,37.082325 270.355865,36.341599 273.452057,35.780434 
	C281.405090,34.339008 286.241241,36.917427 288.187103,44.662373 
	C289.540985,50.051105 289.432587,55.807968 289.967102,61.401367 
	C290.115753,62.957199 290.227722,64.516533 290.356537,66.074257 
	C290.855286,66.016495 291.354034,65.958733 291.852814,65.900970 
	C293.670135,56.748184 294.097015,47.601055 289.913544,38.846184 
	C285.847839,30.337641 280.023254,28.015701 271.034363,30.846716 
	C266.124939,32.392906 261.230408,33.986259 255.442581,35.508564 
M373.844513,192.605301 
	C369.999908,186.179016 366.166046,179.746277 362.307831,173.328186 
	C357.947205,166.074188 357.781250,166.014175 348.925659,167.704178 
	C348.925659,188.283173 348.925659,208.862152 348.925659,229.335785 
	C352.176147,229.335785 355.084045,229.335785 358.436554,229.335785 
	C358.436554,215.127930 358.436554,201.263031 358.436554,187.398132 
	C366.487946,199.279968 373.686554,211.389389 380.910156,223.483917 
	C385.125397,230.541534 386.067352,230.907776 394.404510,228.996506 
	C394.404510,208.436066 394.404510,187.875626 394.404510,167.408936 
	C391.122498,167.408936 388.197540,167.408936 384.682953,167.408936 
	C384.682953,181.611893 384.682953,195.521179 384.682953,210.647064 
	C380.712128,204.063400 377.450562,198.655685 373.844513,192.605301 
M51.540352,205.369263 
	C54.090611,202.061188 61.387585,202.350220 63.314262,205.940781 
	C66.299408,211.503860 69.134583,217.147400 72.035873,222.755524 
	C76.079964,230.572647 76.790619,230.893372 86.030830,228.909576 
	C81.418152,219.894638 76.835983,210.939316 72.194901,201.868851 
	C73.473869,201.037811 74.472153,200.469391 75.382797,199.784454 
	C81.566063,195.133850 84.111267,188.951889 82.474434,181.393051 
	C80.836487,173.829025 75.883080,168.528381 68.404366,167.671783 
	C59.766644,166.682434 50.928638,167.441711 42.300018,167.441711 
	C42.300018,188.264099 42.300018,208.805710 42.300018,229.220520 
	C45.522514,229.220520 48.395367,229.220520 51.518345,229.220520 
	C51.518345,221.340042 51.518345,213.865997 51.540352,205.369263 
M264.519989,167.013153 
	C261.400024,167.013153 258.280090,167.013153 254.990387,167.013153 
	C254.990387,188.122894 254.990387,208.661026 254.990387,230.028702 
	C262.678558,229.615356 270.256958,230.057678 277.480011,228.661575 
	C299.893280,224.329422 309.922882,197.364120 296.039062,179.411774 
	C288.331421,169.445526 277.678680,166.245499 264.519989,167.013153 
M163.803299,214.253891 
	C160.743958,219.111877 157.684616,223.969864 154.499863,229.026978 
	C164.838547,230.644547 164.840683,230.645859 169.752380,222.693176 
	C170.888733,220.853256 171.883575,218.909378 173.178772,217.190628 
	C173.898941,216.234970 175.085495,215.022995 176.094757,214.991867 
	C182.534103,214.793106 188.982574,214.890625 195.798248,214.890625 
	C195.798248,220.096603 195.798248,224.712570 195.798248,229.352173 
	C199.108170,229.352173 202.020798,229.352173 204.881042,229.352173 
	C204.881042,208.471115 204.881042,187.897446 204.881042,167.114410 
	C203.235947,167.114410 201.889526,167.315933 200.625061,167.079361 
	C195.291092,166.081406 192.388901,168.416397 189.644165,173.033737 
	C181.483810,186.761581 172.695526,200.116150 163.803299,214.253891 
M111.572678,216.255981 
	C110.677948,216.647797 109.783218,217.039612 108.900314,217.426254 
	C112.261627,227.062866 124.447594,232.385895 135.482315,229.167404 
	C143.635010,226.789536 149.214066,220.827499 149.930252,213.744446 
	C150.790466,205.236893 145.780899,200.502228 139.034302,196.985031 
	C136.836655,195.839371 134.451294,195.048859 132.137390,194.132263 
	C129.053146,192.910538 125.561356,192.257172 122.986053,190.355560 
	C120.895836,188.812164 118.465019,185.564896 118.790161,183.479431 
	C119.171814,181.031555 121.968040,178.001617 124.428825,177.033707 
	C129.735580,174.946335 135.186920,175.693222 140.046997,180.188217 
	C142.174408,177.769608 144.195953,175.471313 146.743790,172.574707 
	C143.459671,170.831085 140.453140,168.613174 137.083206,167.575760 
	C130.176620,165.449631 123.221893,165.786804 116.867348,169.665100 
	C105.984108,176.307281 105.692062,191.187256 116.661690,197.658234 
	C122.177231,200.911865 128.545395,202.703888 134.475830,205.277084 
	C137.615387,206.639328 140.652924,208.436584 140.291260,212.488159 
	C139.911209,216.745758 136.742737,218.887558 133.036163,219.772202 
	C126.759346,221.270325 121.190865,219.851990 117.158737,214.335007 
	C115.414017,214.951889 113.853241,215.503738 111.572678,216.255981 
M321.529419,229.693085 
	C328.264648,229.693085 334.999878,229.693085 341.707825,229.693085 
	C341.707825,225.967438 341.707825,223.054855 341.707825,219.793243 
	C334.301422,219.793243 327.201813,219.793243 319.975067,219.793243 
	C319.975067,214.061691 319.975067,208.693893 319.975067,202.931015 
	C325.699524,202.931015 331.128937,202.931015 336.668427,202.931015 
	C336.668427,199.626541 336.668427,196.727188 336.668427,193.193405 
	C330.898895,193.193405 325.357330,193.193405 320.052826,193.193405 
	C320.052826,187.319092 320.052826,182.088867 320.052826,176.451904 
	C327.510895,176.451904 334.601898,176.451904 341.613739,176.451904 
	C341.613739,173.130615 341.613739,170.233627 341.613739,167.370789 
	C330.869659,167.370789 320.471741,167.370789 310.254517,167.370789 
	C310.254517,188.305023 310.254517,208.842255 310.254517,229.692047 
	C313.929688,229.692047 317.235016,229.692047 321.529419,229.693085 
M405.720093,167.093063 
	C397.675110,167.743286 404.358032,173.462753 400.833313,176.722931 
	C406.623779,176.722931 410.703461,176.722931 415.272766,176.722931 
	C415.272766,194.549271 415.272766,211.924377 415.272766,229.458420 
	C418.698883,229.458420 421.614319,229.458420 425.057373,229.458420 
	C425.057373,211.847168 425.057373,194.476776 425.057373,176.612152 
	C429.651093,176.612152 433.724640,176.612152 437.838379,176.612152 
	C437.838379,173.187546 437.838379,170.269852 437.838379,167.093018 
	C427.234650,167.093018 416.955322,167.093018 405.720093,167.093063 
M215.684708,209.498810 
	C215.684708,216.107101 215.684708,222.715408 215.684708,229.319916 
	C226.590500,229.319916 236.949799,229.319916 247.265152,229.319916 
	C247.265152,225.998444 247.265152,223.089355 247.265152,219.640823 
	C239.726105,219.640823 232.505676,219.640823 224.990845,219.640823 
	C224.990845,201.865189 224.990845,184.636734 224.990845,167.388245 
	C221.771454,167.388245 218.887024,167.388245 215.684555,167.388245 
	C215.684555,181.271942 215.684555,194.885544 215.684708,209.498810 
M101.185852,175.541687 
	C101.185852,172.783722 101.185852,170.025772 101.185852,167.320648 
	C97.700188,167.320648 94.934654,167.320648 91.982872,167.320648 
	C91.982872,188.120316 91.982872,208.660583 91.982872,229.289368 
	C95.165543,229.289368 98.050102,229.289368 101.185394,229.289368 
	C101.185394,211.479874 101.185394,194.006546 101.185852,175.541687 
z"/>
<path fill="#EFEFEF" opacity="1.000000" stroke="none" 
	d="
M255.885864,35.533455 
	C261.230408,33.986259 266.124939,32.392906 271.034363,30.846716 
	C280.023254,28.015701 285.847839,30.337641 289.913544,38.846184 
	C294.097015,47.601055 293.670135,56.748184 291.852814,65.900970 
	C291.354034,65.958733 290.855286,66.016495 290.356537,66.074257 
	C290.227722,64.516533 290.115753,62.957199 289.967102,61.401367 
	C289.432587,55.807968 289.540985,50.051105 288.187103,44.662373 
	C286.241241,36.917427 281.405090,34.339008 273.452057,35.780434 
	C270.355865,36.341599 267.212219,37.082325 264.331879,38.308903 
	C256.153595,41.791584 248.277191,40.817879 239.998978,38.302273 
	C234.281860,36.564934 227.917709,35.290958 222.097580,35.975849 
	C214.652603,36.851944 209.416992,42.636353 207.684692,49.701126 
	C205.776398,57.483463 205.354156,65.688797 204.931595,73.743805 
	C204.791168,76.420586 204.361694,78.212608 202.516846,80.127121 
	C198.593567,84.198578 194.874893,88.481422 191.285782,92.852852 
	C190.049759,94.358269 189.447922,96.384384 188.556381,98.172623 
	C188.901077,98.537918 189.245789,98.903206 189.590485,99.268494 
	C192.008698,98.412979 194.425339,97.552948 196.845428,96.702774 
	C204.983154,93.844017 208.262421,95.537872 211.230347,103.426193 
	C214.803986,112.924477 218.507141,122.386551 222.554672,131.690094 
	C225.822449,139.201340 231.836258,140.522537 238.189560,135.372330 
	C241.148636,132.973602 243.685883,130.058548 246.452637,127.417625 
	C251.120193,122.962387 253.773010,123.031807 258.204254,127.661850 
	C264.543243,134.285202 268.678223,133.984482 273.926666,126.168076 
	C280.025146,117.085648 281.720734,106.481377 283.845001,96.051567 
	C284.072205,94.935959 284.277435,93.815865 284.578766,92.252220 
	C286.991089,93.765358 289.132507,95.108543 292.223419,97.047310 
	C292.223419,93.030006 292.223419,90.050568 292.223419,87.071129 
	C292.606873,86.989105 292.990326,86.907082 293.373779,86.825058 
	C294.030548,90.368004 295.897552,94.307083 294.913666,97.313004 
	C294.270172,99.278938 289.495331,99.892601 286.847107,100.996811 
	C283.535553,109.744850 280.095276,119.196869 276.328644,128.517029 
	C275.431396,130.737213 273.654358,132.728058 271.917847,134.459137 
	C266.744080,139.616730 262.902466,139.379486 258.058197,133.885849 
	C251.682755,126.655777 250.538864,126.658691 243.624893,133.730240 
	C241.529739,135.873138 239.378265,137.967255 237.162659,139.984970 
	C230.742416,145.831757 226.516006,145.237045 221.677017,138.151855 
	C214.385254,127.475327 209.032135,115.891525 205.046875,103.634109 
	C204.548218,102.100388 203.975616,100.590706 203.166824,98.305931 
	C199.762558,100.067932 196.915680,101.609795 194.009552,103.030426 
	C189.006287,105.476181 185.288971,103.539062 185.979736,98.088654 
	C186.438919,94.465378 188.337250,90.058830 191.081848,87.882454 
	C197.761383,82.585838 198.984299,76.500145 198.014725,68.437759 
	C196.689972,57.421764 199.750320,46.973804 205.591232,37.480408 
	C212.464386,26.309271 223.198883,23.304430 235.381744,28.482435 
	C241.888657,31.248034 248.744324,33.193150 255.885864,35.533455 
z"/>
<path fill="#F7F7F7" opacity="1.000000" stroke="none" 
	d="
M374.016724,192.926636 
	C377.450562,198.655685 380.712128,204.063400 384.682953,210.647064 
	C384.682953,195.521179 384.682953,181.611893 384.682953,167.408936 
	C388.197540,167.408936 391.122498,167.408936 394.404510,167.408936 
	C394.404510,187.875626 394.404510,208.436066 394.411011,228.997498 
	C386.067352,230.907776 385.125397,230.541534 380.910156,223.483917 
	C373.686554,211.389389 366.487946,199.279968 358.436554,187.398132 
	C358.436554,201.263031 358.436554,215.127930 358.436554,229.335785 
	C355.084045,229.335785 352.176147,229.335785 348.925659,229.335785 
	C348.925659,208.862152 348.925659,188.283173 348.927887,167.703308 
	C357.781250,166.014175 357.947205,166.074188 362.307831,173.328186 
	C366.166046,179.746277 369.999908,186.179016 374.016724,192.926636 
z"/>
<path fill="#F8F8F8" opacity="1.000000" stroke="none" 
	d="
M51.529350,205.880615 
	C51.518345,213.865997 51.518345,221.340042 51.518345,229.220520 
	C48.395367,229.220520 45.522514,229.220520 42.300018,229.220520 
	C42.300018,208.805710 42.300018,188.264099 42.300018,167.441711 
	C50.928638,167.441711 59.766644,166.682434 68.404366,167.671783 
	C75.883080,168.528381 80.836487,173.829025 82.474434,181.393051 
	C84.111267,188.951889 81.566063,195.133850 75.382797,199.784454 
	C74.472153,200.469391 73.473869,201.037811 72.194901,201.868851 
	C76.835983,210.939316 81.418152,219.894638 86.030830,228.909576 
	C76.790619,230.893372 76.079964,230.572647 72.035873,222.755524 
	C69.134583,217.147400 66.299408,211.503860 63.314262,205.940781 
	C61.387585,202.350220 54.090611,202.061188 51.529350,205.880615 
M51.635288,192.789825 
	C56.485123,193.025528 61.362244,193.684265 66.176842,193.373703 
	C70.668365,193.083984 73.278267,189.542053 73.262741,185.213989 
	C73.245918,180.525635 70.596107,177.223114 65.790695,176.836639 
	C61.207451,176.468033 56.571316,176.757202 51.493256,176.757202 
	C51.493256,182.009125 51.493256,186.953369 51.635288,192.789825 
z"/>
<path fill="#F9F9F9" opacity="1.000000" stroke="none" 
	d="
M265.008850,167.058533 
	C277.678680,166.245499 288.331421,169.445526 296.039062,179.411774 
	C309.922882,197.364120 299.893280,224.329422 277.480011,228.661575 
	C270.256958,230.057678 262.678558,229.615356 254.990387,230.028702 
	C254.990387,208.661026 254.990387,188.122894 254.990387,167.013153 
	C258.280090,167.013153 261.400024,167.013153 265.008850,167.058533 
M277.439514,177.643036 
	C273.219910,177.221649 269.000275,176.800262 264.572083,176.358047 
	C264.572083,191.345367 264.572083,205.529572 264.572083,219.683701 
	C278.939606,220.937210 289.395996,214.671021 292.052643,203.432037 
	C294.622009,192.562302 289.107788,182.342743 277.439514,177.643036 
z"/>
<path fill="#F8F8F8" opacity="1.000000" stroke="none" 
	d="
M163.977966,213.935242 
	C172.695526,200.116150 181.483810,186.761581 189.644165,173.033737 
	C192.388901,168.416397 195.291092,166.081406 200.625061,167.079361 
	C201.889526,167.315933 203.235947,167.114410 204.881042,167.114410 
	C204.881042,187.897446 204.881042,208.471115 204.881042,229.352173 
	C202.020798,229.352173 199.108170,229.352173 195.798248,229.352173 
	C195.798248,224.712570 195.798248,220.096603 195.798248,214.890625 
	C188.982574,214.890625 182.534103,214.793106 176.094757,214.991867 
	C175.085495,215.022995 173.898941,216.234970 173.178772,217.190628 
	C171.883575,218.909378 170.888733,220.853256 169.752380,222.693176 
	C164.840683,230.645859 164.838547,230.644547 154.499863,229.026978 
	C157.684616,223.969864 160.743958,219.111877 163.977966,213.935242 
M187.290344,194.770798 
	C185.253082,198.099319 183.215836,201.427856 180.939835,205.146454 
	C186.142593,205.146454 190.709351,205.146454 195.460693,205.146454 
	C195.460693,197.689163 195.460693,190.507812 195.460693,182.258224 
	C192.517410,186.808792 190.127319,190.504059 187.290344,194.770798 
z"/>
<path fill="#F7F7F7" opacity="1.000000" stroke="none" 
	d="
M111.932571,216.155792 
	C113.853241,215.503738 115.414017,214.951889 117.158737,214.335007 
	C121.190865,219.851990 126.759346,221.270325 133.036163,219.772202 
	C136.742737,218.887558 139.911209,216.745758 140.291260,212.488159 
	C140.652924,208.436584 137.615387,206.639328 134.475830,205.277084 
	C128.545395,202.703888 122.177231,200.911865 116.661690,197.658234 
	C105.692062,191.187256 105.984108,176.307281 116.867348,169.665100 
	C123.221893,165.786804 130.176620,165.449631 137.083206,167.575760 
	C140.453140,168.613174 143.459671,170.831085 146.743790,172.574707 
	C144.195953,175.471313 142.174408,177.769608 140.046997,180.188217 
	C135.186920,175.693222 129.735580,174.946335 124.428825,177.033707 
	C121.968040,178.001617 119.171814,181.031555 118.790161,183.479431 
	C118.465019,185.564896 120.895836,188.812164 122.986053,190.355560 
	C125.561356,192.257172 129.053146,192.910538 132.137390,194.132263 
	C134.451294,195.048859 136.836655,195.839371 139.034302,196.985031 
	C145.780899,200.502228 150.790466,205.236893 149.930252,213.744446 
	C149.214066,220.827499 143.635010,226.789536 135.482315,229.167404 
	C124.447594,232.385895 112.261627,227.062866 108.900314,217.426254 
	C109.783218,217.039612 110.677948,216.647797 111.932571,216.155792 
z"/>
<path fill="#F3F3F3" opacity="1.000000" stroke="none" 
	d="
M321.034882,229.692566 
	C317.235016,229.692047 313.929688,229.692047 310.254517,229.692047 
	C310.254517,208.842255 310.254517,188.305023 310.254517,167.370789 
	C320.471741,167.370789 330.869659,167.370789 341.613739,167.370789 
	C341.613739,170.233627 341.613739,173.130615 341.613739,176.451904 
	C334.601898,176.451904 327.510895,176.451904 320.052826,176.451904 
	C320.052826,182.088867 320.052826,187.319092 320.052826,193.193405 
	C325.357330,193.193405 330.898895,193.193405 336.668427,193.193405 
	C336.668427,196.727188 336.668427,199.626541 336.668427,202.931015 
	C331.128937,202.931015 325.699524,202.931015 319.975067,202.931015 
	C319.975067,208.693893 319.975067,214.061691 319.975067,219.793243 
	C327.201813,219.793243 334.301422,219.793243 341.707825,219.793243 
	C341.707825,223.054855 341.707825,225.967438 341.707825,229.693085 
	C334.999878,229.693085 328.264648,229.693085 321.034882,229.692566 
z"/>
<path fill="#F2F2F2" opacity="1.000000" stroke="none" 
	d="
M406.198059,167.093048 
	C416.955322,167.093018 427.234650,167.093018 437.838379,167.093018 
	C437.838379,170.269852 437.838379,173.187546 437.838379,176.612152 
	C433.724640,176.612152 429.651093,176.612152 425.057373,176.612152 
	C425.057373,194.476776 425.057373,211.847168 425.057373,229.458420 
	C421.614319,229.458420 418.698883,229.458420 415.272766,229.458420 
	C415.272766,211.924377 415.272766,194.549271 415.272766,176.722931 
	C410.703461,176.722931 406.623779,176.722931 400.833313,176.722931 
	C404.358032,173.462753 397.675110,167.743286 406.198059,167.093048 
z"/>
<path fill="#F9F9F9" opacity="1.000000" stroke="none" 
	d="
M215.684631,208.998962 
	C215.684555,194.885544 215.684555,181.271942 215.684555,167.388245 
	C218.887024,167.388245 221.771454,167.388245 224.990845,167.388245 
	C224.990845,184.636734 224.990845,201.865189 224.990845,219.640823 
	C232.505676,219.640823 239.726105,219.640823 247.265152,219.640823 
	C247.265152,223.089355 247.265152,225.998444 247.265152,229.319916 
	C236.949799,229.319916 226.590500,229.319916 215.684708,229.319916 
	C215.684708,222.715408 215.684708,216.107101 215.684631,208.998962 
z"/>
<path fill="#FCFCFC" opacity="1.000000" stroke="none" 
	d="
M101.185623,176.037460 
	C101.185394,194.006546 101.185394,211.479874 101.185394,229.289368 
	C98.050102,229.289368 95.165543,229.289368 91.982872,229.289368 
	C91.982872,208.660583 91.982872,188.120316 91.982872,167.320648 
	C94.934654,167.320648 97.700188,167.320648 101.185852,167.320648 
	C101.185852,170.025772 101.185852,172.783722 101.185623,176.037460 
z"/>
<path fill="#EBEBEB" opacity="1.000000" stroke="none" 
	d="
M255.194443,110.022453 
	C249.184402,117.152824 235.532272,114.371597 231.335693,107.462509 
	C226.983383,100.296989 226.926849,92.582359 228.242935,84.737015 
	C228.797775,81.429596 231.082199,82.122711 233.146896,83.466087 
	C236.346771,85.548050 239.366592,87.951218 242.711594,89.757301 
	C252.387497,94.981636 260.015198,94.984840 270.707458,90.658333 
	C268.638672,94.679001 266.569885,98.699669 263.881683,102.958694 
	C262.766235,103.158295 262.270203,103.119537 261.839813,102.728455 
	C262.566559,100.918884 263.227661,99.461639 264.054504,97.710922 
	C263.464996,97.237694 262.709717,97.057945 261.537628,96.863853 
	C251.014908,99.558540 241.718674,97.864532 233.108780,91.453751 
	C232.708679,91.586601 232.440109,91.988396 232.051117,92.727203 
	C231.485779,107.795120 238.647522,113.617317 252.765396,110.004425 
	C253.563309,109.800232 254.366684,109.617401 255.039673,109.580154 
	C254.911819,109.735672 255.194443,110.022453 255.194443,110.022453 
z"/>
<path fill="#090909" opacity="1.000000" stroke="none" 
	d="
M261.774170,103.080780 
	C262.270203,103.119537 262.766235,103.158295 263.636108,103.202667 
	C261.893951,105.236351 259.777924,107.264412 257.336975,109.136398 
	C257.012054,108.980331 256.927032,108.859634 257.087341,108.578400 
	C258.756500,106.558372 260.265320,104.819572 261.774170,103.080780 
z"/>
<path fill="#090909" opacity="1.000000" stroke="none" 
	d="
M257.060852,109.035751 
	C256.621857,109.479111 256.134094,109.867058 255.420380,110.138733 
	C255.194443,110.022453 254.911819,109.735672 254.997421,109.372498 
	C255.697693,108.959435 256.312378,108.909531 256.927032,108.859634 
	C256.927032,108.859634 257.012054,108.980331 257.060852,109.035751 
z"/>
<path fill="#0C0C0C" opacity="1.000000" stroke="none" 
	d="
M51.564270,192.343719 
	C51.493256,186.953369 51.493256,182.009125 51.493256,176.757202 
	C56.571316,176.757202 61.207451,176.468033 65.790695,176.836639 
	C70.596107,177.223114 73.245918,180.525635 73.262741,185.213989 
	C73.278267,189.542053 70.668365,193.083984 66.176842,193.373703 
	C61.362244,193.684265 56.485123,193.025528 51.564270,192.343719 
z"/>
<path fill="#070707" opacity="1.000000" stroke="none" 
	d="
M277.840271,177.739014 
	C289.107788,182.342743 294.622009,192.562302 292.052643,203.432037 
	C289.395996,214.671021 278.939606,220.937210 264.572083,219.683701 
	C264.572083,205.529572 264.572083,191.345367 264.572083,176.358047 
	C269.000275,176.800262 273.219910,177.221649 277.840271,177.739014 
z"/>
<path fill="#171717" opacity="1.000000" stroke="none" 
	d="
M187.513794,194.485046 
	C190.127319,190.504059 192.517410,186.808792 195.460693,182.258224 
	C195.460693,190.507812 195.460693,197.689163 195.460693,205.146454 
	C190.709351,205.146454 186.142593,205.146454 180.939835,205.146454 
	C183.215836,201.427856 185.253082,198.099319 187.513794,194.485046 
z"/>
<path fill="#010101" opacity="1.000000" stroke="none" 
	d="
M257.087341,108.578400 
	C256.312378,108.909531 255.697693,108.959435 255.125275,109.216980 
	C254.366684,109.617401 253.563309,109.800232 252.765396,110.004425 
	C238.647522,113.617317 231.485779,107.795120 232.337738,92.591476 
	C232.909988,91.986732 233.075150,91.854721 233.240326,91.722702 
	C241.718674,97.864532 251.014908,99.558540 261.680328,97.130081 
	C262.789520,97.608566 263.339142,97.806480 263.888794,98.004395 
	C263.227661,99.461639 262.566559,100.918884 261.839813,102.728455 
	C260.265320,104.819572 258.756500,106.558372 257.087341,108.578400 
z"/>
<path fill="#090909" opacity="1.000000" stroke="none" 
	d="
M264.054504,97.710922 
	C263.339142,97.806480 262.789520,97.608566 262.097168,97.144424 
	C262.709717,97.057945 263.464996,97.237694 264.054504,97.710922 
z"/>
<path fill="#090909" opacity="1.000000" stroke="none" 
	d="
M232.458191,92.254471 
	C232.440109,91.988396 232.708679,91.586601 233.108780,91.453751 
	C233.075150,91.854721 232.909988,91.986732 232.458191,92.254471 
z"/>
</svg>