<svg version="1.1" id="Layer_1" xmlns="http://www.w3.org/2000/svg" xmlns:xlink="http://www.w3.org/1999/xlink" x="0px" y="0px"
	 width="100%" viewBox="0 0 449 274" enable-background="new 0 0 449 274" xml:space="preserve">
<path fill="#010101" opacity="1.000000" stroke="none" 
	d="
M336.000000,275.000000 
	C224.000000,275.000000 112.500000,275.000000 1.000000,275.000000 
	C1.000000,183.666672 1.000000,92.333336 1.000000,1.000000 
	C150.666672,1.000000 300.333344,1.000000 450.000000,1.000000 
	C450.000000,92.333336 450.000000,183.666672 450.000000,275.000000 
	C412.166656,275.000000 374.333344,275.000000 336.000000,275.000000 
M249.548218,135.345978 
	C243.129517,138.385849 236.747223,138.427902 230.308884,135.310486 
	C226.566345,133.498352 222.765213,131.787460 218.908340,130.235016 
	C208.200912,125.925171 199.292252,128.239395 192.345230,137.380341 
	C183.320084,149.255722 181.587830,162.944931 183.401443,177.239517 
	C183.879486,181.007294 183.007767,183.194138 180.108261,185.695023 
	C175.658295,189.533112 170.669464,193.470627 170.790558,200.324554 
	C170.888092,205.845337 173.592331,207.466400 178.632950,205.222366 
	C188.452255,200.850922 188.452316,200.850906 191.964859,211.224274 
	C192.018280,211.381989 192.041763,211.553650 192.116364,211.699829 
	C197.095535,221.455704 201.732224,231.408585 207.181610,240.894562 
	C210.883484,247.338577 215.867844,247.696838 221.203796,242.888947 
	C223.924393,240.437561 226.512787,237.835785 229.102661,235.243774 
	C235.220535,229.120834 237.017166,229.153259 242.605026,235.597229 
	C247.986526,241.803223 254.217377,241.853012 258.534637,234.825851 
	C262.326904,228.653137 265.204193,221.847961 267.871338,215.080063 
	C269.534973,210.858536 270.058319,206.187653 270.813934,202.924988 
	C274.345367,202.126678 277.360657,201.985458 279.710571,200.662445 
	C280.728760,200.089188 280.375580,197.080170 280.539642,195.923065 
	C276.256836,195.923065 272.922394,195.923065 269.830322,195.923065 
	C267.751221,203.552902 265.997070,212.071899 263.014069,220.136353 
	C261.294800,224.784271 257.972412,229.031586 254.656235,232.835602 
	C251.999146,235.883575 248.436127,235.598969 245.578079,232.301575 
	C244.814560,231.420731 244.040466,230.544662 243.215866,229.721909 
	C238.683762,225.199905 236.086304,225.185715 231.370346,229.686096 
	C228.603622,232.326355 226.056778,235.228180 223.104095,237.635986 
	C216.747971,242.819199 210.781693,241.467926 207.512634,233.912476 
	C203.482925,224.598999 199.718826,215.161545 196.142563,205.663712 
	C193.241333,197.958588 190.155731,196.241547 182.294617,198.819519 
	C179.700012,199.670395 177.125778,200.583420 174.542236,201.468033 
	C174.229889,201.050583 173.917557,200.633133 173.605209,200.215683 
	C177.135498,191.575546 184.414948,185.768097 189.974686,179.979294 
	C189.974686,173.128769 189.376923,167.022354 190.090561,161.073242 
	C191.975876,145.356796 203.050201,131.112335 223.396744,139.827255 
	C223.854919,140.023514 224.350998,140.129944 224.814041,140.316406 
	C233.069000,143.640564 241.311127,143.894409 249.589005,140.347214 
	C251.263321,139.629761 253.056931,139.183670 254.807861,138.653076 
	C265.741577,135.339828 272.397552,139.154343 274.349213,150.429871 
	C275.164429,155.139694 274.772552,160.054977 274.993256,164.873901 
	C275.042572,165.950516 275.359406,167.014862 275.553070,168.084869 
	C276.269318,168.039886 276.985535,167.994904 277.701752,167.949921 
	C277.701752,162.258377 278.234955,156.506821 277.602478,150.886444 
	C275.651215,133.546585 266.206146,128.227158 249.548218,135.345978 
M346.374725,47.063400 
	C343.846771,40.443146 338.514526,42.964031 333.948730,42.862400 
	C333.948730,63.770832 333.948730,84.310883 333.948730,104.829582 
	C337.236786,104.829582 340.147888,104.829582 343.389740,104.829582 
	C343.389740,90.627739 343.389740,76.745644 343.389740,61.296715 
	C351.310242,74.524170 358.466431,86.436493 365.582245,98.372887 
	C370.130157,106.001740 370.103394,106.017700 379.579956,104.671288 
	C379.579956,84.152931 379.579956,63.597939 379.579956,42.945141 
	C376.240723,42.945141 373.183533,42.945141 369.812805,42.945141 
	C369.812805,57.173264 369.812805,71.065430 369.812805,86.504616 
	C361.640930,72.698959 354.229828,60.178539 346.374725,47.063400 
M60.447441,75.227280 
	C67.109970,70.074570 69.395653,63.421799 67.073502,55.321709 
	C65.168022,48.675034 59.032265,43.236938 52.286667,42.937531 
	C43.990871,42.569309 35.666283,42.849632 27.196884,42.849632 
	C27.196884,63.633369 27.196884,84.213379 27.196884,104.832695 
	C30.356756,104.832695 33.262516,104.832695 36.568153,104.832695 
	C36.568153,96.153503 36.568153,87.726112 36.568153,79.361679 
	C46.573730,78.073402 46.601990,78.058548 50.791695,86.029991 
	C53.577419,91.330177 56.084221,96.788681 59.118935,101.938820 
	C59.975925,103.393204 62.143711,104.480644 63.907227,104.891846 
	C66.067627,105.395584 68.434944,105.011894 71.381248,105.011894 
	C66.924904,96.360603 62.836437,88.227592 58.538517,80.206818 
	C57.349041,77.987015 57.406937,76.628662 60.447441,75.227280 
M239.740753,72.499878 
	C239.740753,83.239288 239.740753,93.978699 239.740753,104.906395 
	C246.416931,104.906395 252.569031,105.272705 258.662689,104.831581 
	C272.137329,103.856110 283.096588,94.352882 286.399567,81.304283 
	C289.615906,68.597977 284.493713,55.907192 273.732239,48.118607 
	C263.252747,40.534119 251.513702,43.309090 239.740219,42.577171 
	C239.740219,52.573845 239.740219,62.036858 239.740753,72.499878 
M171.523468,90.661758 
	C174.463211,90.661758 177.402954,90.661758 180.675476,90.661758 
	C180.675476,95.787354 180.675476,100.246796 180.675476,104.697891 
	C184.066818,104.697891 187.107285,104.697891 189.939987,104.697891 
	C189.939987,83.849518 189.939987,63.421890 189.939987,42.669773 
	C188.508881,42.669773 187.323502,42.856518 186.218018,42.638393 
	C180.544891,41.519001 177.315018,43.969749 174.351700,48.858086 
	C163.658432,66.497963 152.459045,83.830917 141.470352,101.292076 
	C140.816040,102.331795 140.332748,103.479141 139.694809,104.722710 
	C150.035858,105.702904 150.864685,106.090981 154.662827,97.979202 
	C158.261475,90.293472 163.896454,90.143234 171.523468,90.661758 
M103.662933,57.833431 
	C107.001228,50.530415 115.458931,49.452938 125.347343,55.338352 
	C127.191002,53.201393 129.104843,50.983078 131.033173,48.747971 
	C124.683884,41.430229 111.520294,39.528732 102.501938,44.760925 
	C96.270866,48.376019 93.408775,53.750034 93.800392,60.916424 
	C94.222496,68.640854 99.286049,72.752541 105.610474,75.591171 
	C110.446930,77.761948 115.765327,78.950607 120.391914,81.457314 
	C122.590912,82.648735 125.163406,86.095718 124.884880,88.158867 
	C124.547577,90.657379 121.811516,93.811775 119.341866,94.853989 
	C112.661232,97.673271 106.774864,95.385040 102.007904,89.784485 
	C99.236847,90.849785 96.498596,91.902473 93.753204,92.957909 
	C97.959282,102.997116 110.342178,108.127098 121.147850,104.498146 
	C128.616348,101.989952 134.018768,97.309601 134.883316,89.061455 
	C135.761322,80.684944 130.675034,75.696793 123.842522,72.392471 
	C119.227570,70.160591 114.188515,68.822670 109.469643,66.782982 
	C106.034760,65.298286 102.923210,63.240215 103.662933,57.833431 
M319.094849,78.699615 
	C325.072174,76.625961 320.277740,72.206734 322.320068,68.615715 
	C315.780548,68.615715 310.361053,68.615715 304.996826,68.615715 
	C304.996826,62.952015 304.996826,57.708527 304.996826,51.936050 
	C312.512146,51.936050 319.727234,51.936050 326.805664,51.936050 
	C326.805664,48.607613 326.805664,45.821674 326.805664,42.828468 
	C316.138519,42.828468 305.708344,42.828468 295.153839,42.828468 
	C295.153839,63.585461 295.153839,84.124924 295.153839,104.736458 
	C305.941620,104.736458 316.446045,104.736458 326.596832,104.736458 
	C326.596832,101.397766 326.596832,98.484787 326.596832,95.152237 
	C319.129395,95.152237 312.058929,95.152237 304.979858,95.152237 
	C304.979858,89.468475 304.979858,84.238731 304.979858,78.700470 
	C309.567413,78.700470 313.865265,78.700470 319.094849,78.699615 
M410.196991,52.904720 
	C414.388031,52.532295 418.579071,52.159870 422.926331,51.773563 
	C422.926331,48.837475 422.926331,45.921028 422.926331,42.809769 
	C410.917297,42.809769 399.160736,42.809769 387.181580,42.809769 
	C387.181580,45.913067 387.181580,48.796047 387.181580,52.299583 
	C391.621033,52.299583 395.817169,52.299583 400.275665,52.299583 
	C400.275665,70.174446 400.275665,87.427956 400.275665,104.900665 
	C403.616730,104.900665 406.669708,104.900665 410.119293,104.900665 
	C410.119293,87.708008 410.119293,70.776878 410.196991,52.904720 
M230.130554,105.005081 
	C235.291199,102.711456 231.326370,98.739838 232.769684,95.165970 
	C224.782242,95.165970 217.698349,95.165970 210.207947,95.165970 
	C210.207947,77.501114 210.207947,60.259666 210.207947,42.924194 
	C206.862366,42.924194 203.944382,42.924194 200.964020,42.924194 
	C200.964020,63.726192 200.964020,84.262825 200.964020,105.008026 
	C210.573914,105.008026 219.883301,105.008026 230.130554,105.005081 
M86.189850,57.501724 
	C86.189850,52.591835 86.189850,47.681946 86.189850,42.956802 
	C82.638062,42.956802 79.859833,42.956802 76.997620,42.956802 
	C76.997620,63.715313 76.997620,84.228638 76.997620,104.727676 
	C80.216156,104.727676 83.118935,104.727676 86.189491,104.727676 
	C86.189491,89.103943 86.189491,73.802834 86.189850,57.501724 
M212.853867,189.431366 
	C212.932709,193.406113 212.572998,197.448853 213.176559,201.342255 
	C214.696075,211.144028 221.345795,216.682236 230.542862,216.354691 
	C241.690216,215.957672 253.935364,203.761124 254.667297,192.094040 
	C248.253830,196.862427 241.124527,197.187042 234.226074,194.547485 
	C228.887589,192.504791 223.983963,189.205856 219.103683,186.122467 
	C215.018173,183.541229 214.248764,183.680511 212.853867,189.431366 
z"/>
<path fill="#EFEFEF" opacity="1.000000" stroke="none" 
	d="
M249.930069,135.225174 
	C266.206146,128.227158 275.651215,133.546585 277.602478,150.886444 
	C278.234955,156.506821 277.701752,162.258377 277.701752,167.949921 
	C276.985535,167.994904 276.269318,168.039886 275.553070,168.084869 
	C275.359406,167.014862 275.042572,165.950516 274.993256,164.873901 
	C274.772552,160.054977 275.164429,155.139694 274.349213,150.429871 
	C272.397552,139.154343 265.741577,135.339828 254.807861,138.653076 
	C253.056931,139.183670 251.263321,139.629761 249.589005,140.347214 
	C241.311127,143.894409 233.069000,143.640564 224.814041,140.316406 
	C224.350998,140.129944 223.854919,140.023514 223.396744,139.827255 
	C203.050201,131.112335 191.975876,145.356796 190.090561,161.073242 
	C189.376923,167.022354 189.974686,173.128769 189.974686,179.979294 
	C184.414948,185.768097 177.135498,191.575546 173.605209,200.215683 
	C173.917557,200.633133 174.229889,201.050583 174.542236,201.468033 
	C177.125778,200.583420 179.700012,199.670395 182.294617,198.819519 
	C190.155731,196.241547 193.241333,197.958588 196.142563,205.663712 
	C199.718826,215.161545 203.482925,224.598999 207.512634,233.912476 
	C210.781693,241.467926 216.747971,242.819199 223.104095,237.635986 
	C226.056778,235.228180 228.603622,232.326355 231.370346,229.686096 
	C236.086304,225.185715 238.683762,225.199905 243.215866,229.721909 
	C244.040466,230.544662 244.814560,231.420731 245.578079,232.301575 
	C248.436127,235.598969 251.999146,235.883575 254.656235,232.835602 
	C257.972412,229.031586 261.294800,224.784271 263.014069,220.136353 
	C265.997070,212.071899 267.751221,203.552902 269.830322,195.923065 
	C272.922394,195.923065 276.256836,195.923065 280.539642,195.923065 
	C280.375580,197.080170 280.728760,200.089188 279.710571,200.662445 
	C277.360657,201.985458 274.345367,202.126678 270.813934,202.924988 
	C270.058319,206.187653 269.534973,210.858536 267.871338,215.080063 
	C265.204193,221.847961 262.326904,228.653137 258.534637,234.825851 
	C254.217377,241.853012 247.986526,241.803223 242.605026,235.597229 
	C237.017166,229.153259 235.220535,229.120834 229.102661,235.243774 
	C226.512787,237.835785 223.924393,240.437561 221.203796,242.888947 
	C215.867844,247.696838 210.883484,247.338577 207.181610,240.894562 
	C201.732224,231.408585 197.095535,221.455704 192.116364,211.699829 
	C192.041763,211.553650 192.018280,211.381989 191.964859,211.224274 
	C188.452316,200.850906 188.452255,200.850922 178.632950,205.222366 
	C173.592331,207.466400 170.888092,205.845337 170.790558,200.324554 
	C170.669464,193.470627 175.658295,189.533112 180.108261,185.695023 
	C183.007767,183.194138 183.879486,181.007294 183.401443,177.239517 
	C181.587830,162.944931 183.320084,149.255722 192.345230,137.380341 
	C199.292252,128.239395 208.200912,125.925171 218.908340,130.235016 
	C222.765213,131.787460 226.566345,133.498352 230.308884,135.310486 
	C236.747223,138.427902 243.129517,138.385849 249.930069,135.225174 
z"/>
<path fill="#F9F9F9" opacity="1.000000" stroke="none" 
	d="
M346.596741,47.360760 
	C354.229828,60.178539 361.640930,72.698959 369.812805,86.504616 
	C369.812805,71.065430 369.812805,57.173264 369.812805,42.945141 
	C373.183533,42.945141 376.240723,42.945141 379.579956,42.945141 
	C379.579956,63.597939 379.579956,84.152931 379.579956,104.671288 
	C370.103394,106.017700 370.130157,106.001740 365.582245,98.372887 
	C358.466431,86.436493 351.310242,74.524170 343.389740,61.296715 
	C343.389740,76.745644 343.389740,90.627739 343.389740,104.829582 
	C340.147888,104.829582 337.236786,104.829582 333.948730,104.829582 
	C333.948730,84.310883 333.948730,63.770832 333.948730,42.862400 
	C338.514526,42.964031 343.846771,40.443146 346.596741,47.360760 
z"/>
<path fill="#F8F8F8" opacity="1.000000" stroke="none" 
	d="
M60.149277,75.468643 
	C57.406937,76.628662 57.349041,77.987015 58.538517,80.206818 
	C62.836437,88.227592 66.924904,96.360603 71.381248,105.011894 
	C68.434944,105.011894 66.067627,105.395584 63.907227,104.891846 
	C62.143711,104.480644 59.975925,103.393204 59.118935,101.938820 
	C56.084221,96.788681 53.577419,91.330177 50.791695,86.029991 
	C46.601990,78.058548 46.573730,78.073402 36.568153,79.361679 
	C36.568153,87.726112 36.568153,96.153503 36.568153,104.832695 
	C33.262516,104.832695 30.356756,104.832695 27.196884,104.832695 
	C27.196884,84.213379 27.196884,63.633369 27.196884,42.849632 
	C35.666283,42.849632 43.990871,42.569309 52.286667,42.937531 
	C59.032265,43.236938 65.168022,48.675034 67.073502,55.321709 
	C69.395653,63.421799 67.109970,70.074570 60.149277,75.468643 
M36.532825,57.534386 
	C36.532825,61.287899 36.532825,65.041412 36.532825,69.122421 
	C38.706467,69.122421 40.338825,69.129448 41.971100,69.120865 
	C44.793324,69.106018 47.625381,69.223679 50.435406,69.028229 
	C54.831211,68.722496 57.929577,65.578690 58.200207,61.427914 
	C58.506763,56.726006 55.631054,52.583157 51.070198,52.184521 
	C46.328278,51.770058 41.521976,52.092136 36.532825,52.092136 
	C36.532825,53.905178 36.532825,55.224098 36.532825,57.534386 
z"/>
<path fill="#FBFBFB" opacity="1.000000" stroke="none" 
	d="
M239.740479,71.999878 
	C239.740219,62.036858 239.740219,52.573845 239.740219,42.577171 
	C251.513702,43.309090 263.252747,40.534119 273.732239,48.118607 
	C284.493713,55.907192 289.615906,68.597977 286.399567,81.304283 
	C283.096588,94.352882 272.137329,103.856110 258.662689,104.831581 
	C252.569031,105.272705 246.416931,104.906395 239.740753,104.906395 
	C239.740753,93.978699 239.740753,83.239288 239.740479,71.999878 
M266.074463,92.810219 
	C276.378204,86.478035 280.284271,75.723640 275.977600,65.544258 
	C271.531006,55.034161 261.106750,50.021484 249.548157,52.797710 
	C249.548157,66.871780 249.548157,80.931839 249.548157,96.158241 
	C255.133667,95.088470 260.252991,94.107986 266.074463,92.810219 
z"/>
<path fill="#FAFAFA" opacity="1.000000" stroke="none" 
	d="
M171.026443,90.661751 
	C163.896454,90.143234 158.261475,90.293472 154.662827,97.979202 
	C150.864685,106.090981 150.035858,105.702904 139.694809,104.722710 
	C140.332748,103.479141 140.816040,102.331795 141.470352,101.292076 
	C152.459045,83.830917 163.658432,66.497963 174.351700,48.858086 
	C177.315018,43.969749 180.544891,41.519001 186.218018,42.638393 
	C187.323502,42.856518 188.508881,42.669773 189.939987,42.669773 
	C189.939987,63.421890 189.939987,83.849518 189.939987,104.697891 
	C187.107285,104.697891 184.066818,104.697891 180.675476,104.697891 
	C180.675476,100.246796 180.675476,95.787354 180.675476,90.661758 
	C177.402954,90.661758 174.463211,90.661758 171.026443,90.661751 
M167.365341,80.927307 
	C171.647003,80.927307 175.928650,80.927307 180.436615,80.927307 
	C180.436615,73.399712 180.436615,66.208168 180.436615,59.016628 
	C180.107239,58.856167 179.777863,58.695709 179.448486,58.535248 
	C175.150162,65.977188 170.851852,73.419128 167.365341,80.927307 
z"/>
<path fill="#F6F6F6" opacity="1.000000" stroke="none" 
	d="
M103.575012,58.244411 
	C102.923210,63.240215 106.034760,65.298286 109.469643,66.782982 
	C114.188515,68.822670 119.227570,70.160591 123.842522,72.392471 
	C130.675034,75.696793 135.761322,80.684944 134.883316,89.061455 
	C134.018768,97.309601 128.616348,101.989952 121.147850,104.498146 
	C110.342178,108.127098 97.959282,102.997116 93.753204,92.957909 
	C96.498596,91.902473 99.236847,90.849785 102.007904,89.784485 
	C106.774864,95.385040 112.661232,97.673271 119.341866,94.853989 
	C121.811516,93.811775 124.547577,90.657379 124.884880,88.158867 
	C125.163406,86.095718 122.590912,82.648735 120.391914,81.457314 
	C115.765327,78.950607 110.446930,77.761948 105.610474,75.591171 
	C99.286049,72.752541 94.222496,68.640854 93.800392,60.916424 
	C93.408775,53.750034 96.270866,48.376019 102.501938,44.760925 
	C111.520294,39.528732 124.683884,41.430229 131.033173,48.747971 
	C129.104843,50.983078 127.191002,53.201393 125.347343,55.338352 
	C115.458931,49.452938 107.001228,50.530415 103.575012,58.244411 
z"/>
<path fill="#F7F7F7" opacity="1.000000" stroke="none" 
	d="
M318.628998,78.700043 
	C313.865265,78.700470 309.567413,78.700470 304.979858,78.700470 
	C304.979858,84.238731 304.979858,89.468475 304.979858,95.152237 
	C312.058929,95.152237 319.129395,95.152237 326.596832,95.152237 
	C326.596832,98.484787 326.596832,101.397766 326.596832,104.736458 
	C316.446045,104.736458 305.941620,104.736458 295.153839,104.736458 
	C295.153839,84.124924 295.153839,63.585461 295.153839,42.828468 
	C305.708344,42.828468 316.138519,42.828468 326.805664,42.828468 
	C326.805664,45.821674 326.805664,48.607613 326.805664,51.936050 
	C319.727234,51.936050 312.512146,51.936050 304.996826,51.936050 
	C304.996826,57.708527 304.996826,62.952015 304.996826,68.615715 
	C310.361053,68.615715 315.780548,68.615715 322.320068,68.615715 
	C320.277740,72.206734 325.072174,76.625961 318.628998,78.700043 
z"/>
<path fill="#F8F8F8" opacity="1.000000" stroke="none" 
	d="
M410.158142,53.375229 
	C410.119293,70.776878 410.119293,87.708008 410.119293,104.900665 
	C406.669708,104.900665 403.616730,104.900665 400.275665,104.900665 
	C400.275665,87.427956 400.275665,70.174446 400.275665,52.299583 
	C395.817169,52.299583 391.621033,52.299583 387.181580,52.299583 
	C387.181580,48.796047 387.181580,45.913067 387.181580,42.809769 
	C399.160736,42.809769 410.917297,42.809769 422.926331,42.809769 
	C422.926331,45.921028 422.926331,48.837475 422.926331,51.773563 
	C418.579071,52.159870 414.388031,52.532295 410.158142,53.375229 
z"/>
<path fill="#FBFBFB" opacity="1.000000" stroke="none" 
	d="
M229.661621,105.006554 
	C219.883301,105.008026 210.573914,105.008026 200.964020,105.008026 
	C200.964020,84.262825 200.964020,63.726192 200.964020,42.924194 
	C203.944382,42.924194 206.862366,42.924194 210.207947,42.924194 
	C210.207947,60.259666 210.207947,77.501114 210.207947,95.165970 
	C217.698349,95.165970 224.782242,95.165970 232.769684,95.165970 
	C231.326370,98.739838 235.291199,102.711456 229.661621,105.006554 
z"/>
<path fill="#FFFFFF" opacity="1.000000" stroke="none" 
	d="
M86.189667,58.001724 
	C86.189491,73.802834 86.189491,89.103943 86.189491,104.727676 
	C83.118935,104.727676 80.216156,104.727676 76.997620,104.727676 
	C76.997620,84.228638 76.997620,63.715313 76.997620,42.956802 
	C79.859833,42.956802 82.638062,42.956802 86.189850,42.956802 
	C86.189850,47.681946 86.189850,52.591835 86.189667,58.001724 
z"/>
<path fill="#EDEDED" opacity="1.000000" stroke="none" 
	d="
M212.873337,189.025818 
	C214.248764,183.680511 215.018173,183.541229 219.103683,186.122467 
	C223.983963,189.205856 228.887589,192.504791 234.226074,194.547485 
	C241.124527,197.187042 248.253830,196.862427 254.667297,192.094040 
	C253.935364,203.761124 241.690216,215.957672 230.542862,216.354691 
	C221.345795,216.682236 214.696075,211.144028 213.176559,201.342255 
	C212.572998,197.448853 212.932709,193.406113 212.873337,189.025818 
M243.794220,199.666626 
	C234.112259,200.922791 224.951904,199.968674 217.191162,192.698837 
	C215.973663,204.744843 219.693695,211.894653 227.372849,213.072098 
	C237.968460,214.696747 247.741760,208.277954 249.890686,197.945816 
	C248.031998,198.465714 246.326447,198.942780 243.794220,199.666626 
z"/>
<path fill="#030303" opacity="1.000000" stroke="none" 
	d="
M36.532825,57.038700 
	C36.532825,55.224098 36.532825,53.905178 36.532825,52.092136 
	C41.521976,52.092136 46.328278,51.770058 51.070198,52.184521 
	C55.631054,52.583157 58.506763,56.726006 58.200207,61.427914 
	C57.929577,65.578690 54.831211,68.722496 50.435406,69.028229 
	C47.625381,69.223679 44.793324,69.106018 41.971100,69.120865 
	C40.338825,69.129448 38.706467,69.122421 36.532825,69.122421 
	C36.532825,65.041412 36.532825,61.287899 36.532825,57.038700 
z"/>
<path fill="#070707" opacity="1.000000" stroke="none" 
	d="
M265.723389,92.968857 
	C260.252991,94.107986 255.133667,95.088470 249.548157,96.158241 
	C249.548157,80.931839 249.548157,66.871780 249.548157,52.797710 
	C261.106750,50.021484 271.531006,55.034161 275.977600,65.544258 
	C280.284271,75.723640 276.378204,86.478035 265.723389,92.968857 
z"/>
<path fill="#151515" opacity="1.000000" stroke="none" 
	d="
M166.959442,80.894188 
	C170.851852,73.419128 175.150162,65.977188 179.448486,58.535248 
	C179.777863,58.695709 180.107239,58.856167 180.436615,59.016628 
	C180.436615,66.208168 180.436615,73.399712 180.436615,80.927307 
	C175.928650,80.927307 171.647003,80.927307 166.959442,80.894188 
z"/>
<path fill="#060606" opacity="1.000000" stroke="none" 
	d="
M244.207550,199.543243 
	C246.326447,198.942780 248.031998,198.465714 249.890686,197.945816 
	C247.741760,208.277954 237.968460,214.696747 227.372849,213.072098 
	C219.693695,211.894653 215.973663,204.744843 217.191162,192.698837 
	C224.951904,199.968674 234.112259,200.922791 244.207550,199.543243 
z"/>
</svg>